<mxfile host="app.diagrams.net" agent="Mozilla/5.0 (Windows NT 10.0; Win64; x64) AppleWebKit/537.36 (KHTML, like Gecko) Chrome/137.0.0.0 Safari/537.36" version="27.1.4">
  <diagram name="Mapa de Locación - Arquitectura Física/Virtual" id="drawio-20250607182113">
    <mxGraphModel dx="2595" dy="823" grid="1" gridSize="10" guides="1" tooltips="1" connect="1" arrows="1" fold="1" page="1" pageScale="1" pageWidth="1169" pageHeight="827" math="0" shadow="0">
      <root>
        <mxCell id="0" />
        <mxCell id="1" parent="0" />
        <mxCell id="M-4KKYoeJXCjmr5bxGrw-14" value="" style="endArrow=none;html=1;rounded=0;" parent="1" edge="1">
          <mxGeometry width="50" height="50" relative="1" as="geometry">
            <mxPoint x="-560" y="818" as="sourcePoint" />
            <mxPoint x="-560" y="8" as="targetPoint" />
          </mxGeometry>
        </mxCell>
        <mxCell id="M-4KKYoeJXCjmr5bxGrw-15" value="" style="endArrow=none;html=1;rounded=0;" parent="1" edge="1">
          <mxGeometry width="50" height="50" relative="1" as="geometry">
            <mxPoint x="-1160" y="400" as="sourcePoint" />
            <mxPoint x="-10" y="400" as="targetPoint" />
            <Array as="points">
              <mxPoint x="-560" y="400" />
            </Array>
          </mxGeometry>
        </mxCell>
        <mxCell id="M-4KKYoeJXCjmr5bxGrw-16" value="Edificios" style="text;html=1;align=center;verticalAlign=middle;whiteSpace=wrap;rounded=0;fontStyle=1" parent="1" vertex="1">
          <mxGeometry x="-1150" y="10" width="60" height="30" as="geometry" />
        </mxCell>
        <mxCell id="M-4KKYoeJXCjmr5bxGrw-17" value="Servidores de Wolfsys" style="text;html=1;align=left;verticalAlign=middle;whiteSpace=wrap;rounded=0;fontStyle=1" parent="1" vertex="1">
          <mxGeometry x="-540" y="10" width="210" height="30" as="geometry" />
        </mxCell>
        <mxCell id="M-4KKYoeJXCjmr5bxGrw-18" value="Cliente (Apps)" style="text;html=1;align=left;verticalAlign=middle;whiteSpace=wrap;rounded=0;fontStyle=1" parent="1" vertex="1">
          <mxGeometry x="-1150" y="414" width="110" height="30" as="geometry" />
        </mxCell>
        <mxCell id="4" value="B.O.B y APIs" style="shape=ellipse;fillColor=#f8cecc;" parent="1" vertex="1">
          <mxGeometry x="-330" y="250" width="130" height="100" as="geometry" />
        </mxCell>
        <mxCell id="M-4KKYoeJXCjmr5bxGrw-19" value="App móvil" style="ellipse;whiteSpace=wrap;html=1;fillColor=#f8cecc;strokeColor=#b85450;" parent="1" vertex="1">
          <mxGeometry x="-1080" y="490" width="120" height="80" as="geometry" />
        </mxCell>
        <mxCell id="M-4KKYoeJXCjmr5bxGrw-20" value="App web" style="ellipse;whiteSpace=wrap;html=1;fillColor=#ffe6cc;strokeColor=#d79b00;" parent="1" vertex="1">
          <mxGeometry x="-830" y="490" width="120" height="80" as="geometry" />
        </mxCell>
        <mxCell id="M-4KKYoeJXCjmr5bxGrw-21" value="Interfaz administrativa" style="ellipse;whiteSpace=wrap;html=1;fillColor=#d5e8d4;strokeColor=#82b366;" parent="1" vertex="1">
          <mxGeometry x="-980" y="620" width="170" height="80" as="geometry" />
        </mxCell>
        <mxCell id="M-4KKYoeJXCjmr5bxGrw-22" value="Dispositivos de acceso" style="ellipse;whiteSpace=wrap;html=1;fillColor=#e1d5e7;strokeColor=#9673a6;" parent="1" vertex="1">
          <mxGeometry x="-1050" y="100" width="120" height="80" as="geometry" />
        </mxCell>
        <mxCell id="M-4KKYoeJXCjmr5bxGrw-23" value="Cámaras" style="ellipse;whiteSpace=wrap;html=1;fillColor=#d5e8d4;strokeColor=#82b366;" parent="1" vertex="1">
          <mxGeometry x="-850" y="100" width="120" height="80" as="geometry" />
        </mxCell>
        <mxCell id="M-4KKYoeJXCjmr5bxGrw-24" value="UPS" style="ellipse;whiteSpace=wrap;html=1;fillColor=#f5f5f5;fontColor=#333333;strokeColor=#666666;" parent="1" vertex="1">
          <mxGeometry x="-1050" y="220" width="120" height="80" as="geometry" />
        </mxCell>
        <mxCell id="M-4KKYoeJXCjmr5bxGrw-25" value="Edge Controller" style="ellipse;whiteSpace=wrap;html=1;fillColor=#fff2cc;strokeColor=#d6b656;" parent="1" vertex="1">
          <mxGeometry x="-850" y="220" width="120" height="80" as="geometry" />
        </mxCell>
        <mxCell id="M-4KKYoeJXCjmr5bxGrw-26" value="Modelo de scoring" style="ellipse;whiteSpace=wrap;html=1;fillColor=#e1d5e7;strokeColor=#9673a6;" parent="1" vertex="1">
          <mxGeometry x="-510" y="220" width="120" height="80" as="geometry" />
        </mxCell>
        <mxCell id="M-4KKYoeJXCjmr5bxGrw-27" value="DB datos" style="ellipse;whiteSpace=wrap;html=1;fillColor=#fff2cc;strokeColor=#d6b656;" parent="1" vertex="1">
          <mxGeometry x="-290" y="30" width="120" height="80" as="geometry" />
        </mxCell>
        <mxCell id="M-4KKYoeJXCjmr5bxGrw-28" value="CRM" style="ellipse;whiteSpace=wrap;html=1;" parent="1" vertex="1">
          <mxGeometry x="-340" y="130" width="120" height="80" as="geometry" />
        </mxCell>
        <mxCell id="M-4KKYoeJXCjmr5bxGrw-29" value="Autenticación y autorización" style="ellipse;whiteSpace=wrap;html=1;fillColor=#ffe6cc;strokeColor=#d79b00;" parent="1" vertex="1">
          <mxGeometry x="-500" y="90" width="120" height="80" as="geometry" />
        </mxCell>
        <mxCell id="M-4KKYoeJXCjmr5bxGrw-30" value="DB historial videos" style="ellipse;whiteSpace=wrap;html=1;fillColor=#dae8fc;strokeColor=#6c8ebf;" parent="1" vertex="1">
          <mxGeometry x="-170" y="170" width="120" height="80" as="geometry" />
        </mxCell>
        <mxCell id="M-4KKYoeJXCjmr5bxGrw-31" value="Servicios externos" style="text;html=1;align=center;verticalAlign=middle;whiteSpace=wrap;rounded=0;fontStyle=1" parent="1" vertex="1">
          <mxGeometry x="-540" y="414" width="120" height="30" as="geometry" />
        </mxCell>
        <mxCell id="M-4KKYoeJXCjmr5bxGrw-32" value="Tumimeras" style="ellipse;whiteSpace=wrap;html=1;fillColor=#0050ef;fontColor=#ffffff;strokeColor=#001DBC;" parent="1" vertex="1">
          <mxGeometry x="-345" y="560" width="120" height="80" as="geometry" />
        </mxCell>
      </root>
    </mxGraphModel>
  </diagram>
</mxfile>
